<svg viewBox="0 0 490 120" xmlns="http://www.w3.org/2000/svg" width="490">

  <polygon points="50,26 72,38 72,62 50,74 28,62 28,38"
           fill="none" stroke="#1E3A8A" stroke-width="0.85" stroke-linejoin="round" opacity="0.22"/>
  <polygon points="88,50 69,83 31,83 12,50 31,17 69,17"
           fill="none" stroke="#1E3A8A" stroke-width="3" stroke-linejoin="round"/>

  <line x1="34" y1="27" x2="34" y2="73" stroke="#1E3A8A" stroke-width="6" stroke-linecap="round"/>
  <line x1="66" y1="27" x2="66" y2="73" stroke="#1E3A8A" stroke-width="6" stroke-linecap="round"/>
  <line x1="34" y1="27" x2="66" y2="73" stroke="#06B6D4" stroke-width="6" stroke-linecap="round"/>
  <circle cx="34" cy="27" r="4.3" fill="#1E3A8A"/>
  <circle cx="66" cy="27" r="4.3" fill="#1E3A8A"/>
  <circle cx="34" cy="73" r="4.3" fill="#1E3A8A"/>
  <circle cx="66" cy="73" r="4.3" fill="#06B6D4"/>

  <line x1="114" y1="14" x2="114" y2="106" stroke="#1E3A8A" stroke-width="0.7" opacity="0.2"/>

  <text x="132" y="46"
        font-family="-apple-system,BlinkMacSystemFont,'Segoe UI',system-ui,sans-serif"
        font-size="38" font-weight="800" letter-spacing="6" fill="#1E3A8A">NEXUM</text>

  <text x="132" y="66"
        font-family="-apple-system,BlinkMacSystemFont,'Segoe UI',system-ui,sans-serif"
        font-size="11" font-weight="400" letter-spacing="1" fill="#06B6D4">by fertorm</text>

  <line x1="132" y1="76" x2="472" y2="76" stroke="#06B6D4" stroke-width="0.8" opacity="0.35"/>

  <text x="132" y="90"
        font-family="-apple-system,BlinkMacSystemFont,'Segoe UI',system-ui,sans-serif"
        font-size="8.5" font-weight="400" letter-spacing="1.2" fill="#64748B">INGENIERÍA · DATOS · IA</text>

  <text x="132" y="103"
        font-family="-apple-system,BlinkMacSystemFont,'Segoe UI',system-ui,sans-serif"
        font-size="8.5" font-weight="400" letter-spacing="1.2" fill="#64748B">SOLUCIONES TECNOLÓGICAS</text>
</svg>
